FILE "game.iso" BINARY
  TRACK 01 MODE1/2048
    INDEX 01 00:00:00
    POSTGAP 00:02:00
FILE "02_TITLE.WAV" WAVE
  TRACK 02 AUDIO
    PREGAP 00:12:00
    INDEX 01 00:00:00
FILE "03_PAUSE.WAV" WAVE
  TRACK 03 AUDIO
    PREGAP 00:01:00
    INDEX 01 00:00:00
FILE "04_VICTORY.WAV" WAVE
  TRACK 04 AUDIO
    PREGAP 00:01:00
    INDEX 01 00:00:00
FILE "05_GAMEOVER.WAV" WAVE
  TRACK 05 AUDIO
    PREGAP 00:01:00
    INDEX 01 00:00:00

